<svg xmlns="http://www.w3.org/2000/svg" xmlns:xlink="http://www.w3.org/1999/xlink" version="1.1" x="0px" y="0px" viewBox="0 0 73 91.25" style="enable-background:new 0 0 73 73;" xml:space="preserve"><g><g><path d="M49.5419426,11.9421387c-0.5073242,0.1137695-1.2294922,0.4072266-1.2294922,1.15625    c0,0.5771484,0.4624023,0.8671875,1.2294922,1.0986328V11.9421387z"/><path d="M52.188427,17.2780762c0-0.5146484-0.5854492-0.7714844-1.347168-0.9941406v2.2109375    C52.0419426,18.3342285,52.188427,17.7312012,52.188427,17.2780762z"/><path d="M67.9687042,46.479248c-1.0126953-1.9443359-3.4335938-3.1884766-6.0913124-1.8095703l-1.2167969,0.6118164    c0.1679688-0.3798828,0.2651367-0.7973633,0.2651367-1.2387695v-2.9775391c0-0.8027344-0.315918-1.527832-0.8210449-2.0761719    c0.505127-0.5483398,0.8210449-1.2739258,0.8210449-2.0761719v-2.9775391c0-0.8022461-0.315918-1.527832-0.821167-2.0761719    c0.505249-0.5483398,0.821167-1.2739258,0.821167-2.0761719v-2.9775391c0-1.6962891-1.3798828-3.0766602-3.0761719-3.0766602    h-1.5081787c2.644043-1.9125977,4.3742676-5.0151367,4.3742676-8.5200195c0-5.7998047-4.7199707-10.5200195-10.5200195-10.5200195    c-5.7999268,0-10.5198975,4.7202148-10.5198975,10.5200195c0,3.5048828,1.7302246,6.6074219,4.3742676,8.5200195h-1.4978027    c-1.6962891,0-3.0766602,1.3803711-3.0766602,3.0766602v2.9775391c0,0.5292969,0.1468506,1.0205078,0.3835449,1.4560547    c-0.434082-0.234375-0.9229736-0.3798828-1.4499512-0.3798828H23.1117687c-1.6962891,0-3.0761719,1.3798828-3.0761719,3.0761719    v2.9775391c0,0.8027344,0.3161621,1.5283203,0.8216553,2.0766602c-0.5054932,0.5488281-0.8216553,1.2753906-0.8216553,2.0795898    v0.1313477c-1.3840332,0.1494141-2.7468262,0.472168-4.0549316,0.9628906    c-0.1860352-1.4628906-1.4245605-2.6015625-2.9367676-2.6015625H7.4809089c-1.640625,0-2.9750977,1.3344727-2.9750977,2.9750977    v22.7988281c0,1.640625,1.3344727,2.9755859,2.9750977,2.9755859h5.5629888c1.6401367,0,2.9746094-1.3349609,2.9746094-2.9755859    v-1.0463867c2.6591797-0.9550781,5.5852051-1.0786133,8.3193359-0.2758789l9.5209942,2.7978516    c4.2011719,1.234375,8.730957,0.5976563,12.4296875-1.7451172l19.7705116-12.5307617    C68.6444855,51.1833496,68.9721222,48.4060059,67.9687042,46.479248z M46.6200676,13.1901855    c0-1.5488281,1.1386719-2.6669922,2.921875-2.8974609V9.6003418c0-0.3681641,0.2827148-0.65625,0.6430664-0.65625    c0.3681641,0,0.65625,0.2880859,0.65625,0.65625v0.6669922c0.784668,0.0517578,1.496582,0.1982422,2.1186523,0.4355469    c0.3383789,0.1210938,0.5273438,0.390625,0.5273438,0.7578125c0,0.2705078-0.1333008,0.5283203-0.347168,0.6728516    c-0.2104492,0.1416016-0.4692383,0.1616211-0.7294922,0.0566406c-0.4833984-0.1699219-1.012207-0.2783203-1.5693359-0.3208008    v2.6567383c1.559082,0.3837891,3.0263672,0.9550781,3.0263672,2.8300781c0,1.2495117-0.9379883,2.5639648-3.0263672,2.7724609    v0.699707c0,0.3725586-0.2758789,0.6430664-0.65625,0.6430664c-0.3725586,0-0.6430664-0.2705078-0.6430664-0.6430664v-0.6992188    c-0.8818359-0.0795898-1.7202148-0.2871094-2.4946289-0.6166992c-0.2524414-0.1049805-0.4404297-0.3286133-0.4995117-0.5976563    c-0.0581055-0.2617188,0.0141602-0.5263672,0.1972656-0.7255859c0.2260742-0.2441406,0.5952148-0.3134766,0.9204102-0.1708984    c0.5966797,0.265625,1.2265625,0.4287109,1.8764648,0.4858398v-2.5541992    C48.0951653,15.5524902,46.6200676,14.9494629,46.6200676,13.1901855z M58.9257317,41.0651855v2.9775391    c0,0.5932617-0.4829102,1.0761719-1.0761719,1.0761719H46.5636711c-0.7988281-0.4575195-1.7208252-0.7226563-2.7053223-0.7226563    h-2.3112793c-0.0361328-0.1020508-0.0620117-0.2094727-0.0654297-0.3227539    c0.0002441-0.012207,0.0040283-0.0229492,0.0040283-0.034668v-2.9697266c0-0.012207-0.00354-0.0239258-0.0036621-0.0361328    c0.0179443-0.5776367,0.487915-1.0439453,1.0701904-1.0439453h15.2973633    C58.4428215,39.9890137,58.9257317,40.4719238,58.9257317,41.0651855z M41.4755363,26.8054199    c0-0.59375,0.4829102-1.0766602,1.0766602-1.0766602h15.2973633c0.5932617,0,1.0761719,0.4829102,1.0761719,1.0766602v2.9775391    c0,0.5932617-0.4829102,1.0761719-1.0761719,1.0761719H42.5521965c-0.59375,0-1.0766602-0.4829102-1.0766602-1.0761719V26.8054199    z M22.0355968,33.9353027c0-0.5932617,0.4829102-1.0761719,1.0761719-1.0761719h15.2973614    c0.5817871,0,1.0507813,0.4658203,1.0698242,1.0424805c-0.0001221,0.0117188-0.003418,0.0224609-0.003418,0.0336914v2.9775391    c0,0.0112305,0.0032959,0.0219727,0.003418,0.0336914c-0.019043,0.5766602-0.4880371,1.0424805-1.0698242,1.0424805h-0.003418    H23.115675h-0.0039063c-0.5932617,0-1.0761719-0.4829102-1.0761719-1.0761719V33.9353027z M12.2655773,45.7287598    c0,1.1000977-0.8999023,2-2,2c-1.1098633,0-2-0.8999023-2-2c0-1.1098633,0.8901367-2,2-2    C11.365675,43.7287598,12.2655773,44.6188965,12.2655773,45.7287598z M65.0605011,50.8044434L45.2182121,63.376709    c-3.2119141,2.0351563-7.1464844,2.5878906-10.7958984,1.515625l-9.5209942-2.7978516    c-2.865797-0.8417168-5.8964214-0.8374023-8.8828125,0.0830078V44.2937012    c2.9221191-1.2651367,6.2272949-1.5429688,9.2353516-0.8012695c5.4916687,1.7472153,7.196825,2.9038086,10.5385723,2.9038086    h8.065918c1.9121094,0,3.4672852,1.5556641,3.4672852,3.4677734c0,1.9106064-1.5544319,3.4667969-3.4672852,3.4667969H31.6737804    c-0.5522461,0-1,0.4482422-1,1c0,0.5527344,0.4477539,1,1,1h12.1845684c1.0195313,0,1.9741211-0.2802734,2.7919922-0.7675781    l16.1367188-8.1123047c1.6928749-0.8779297,2.8930702-0.0356445,3.4077187,0.9521484    C66.7480011,48.4645996,66.6513214,49.9685059,65.0605011,50.8044434z"/></g></g><text x="0" y="88" fill="#000000" font-size="5px" font-weight="bold" font-family="'Helvetica Neue', Helvetica, Arial-Unicode, Arial, Sans-serif">Created by Brickclay</text><text x="0" y="93" fill="#000000" font-size="5px" font-weight="bold" font-family="'Helvetica Neue', Helvetica, Arial-Unicode, Arial, Sans-serif">from the Noun Project</text></svg>